<svg width="767" height="769" viewBox="0 0 767 769" fill="none" xmlns="http://www.w3.org/2000/svg">
<g id="Group 1">
<path id="Vector" d="M217.812 251.187C157.125 329.187 158.187 467.75 235.75 536.437C323.812 614.375 447.75 613.562 525.687 541.875C619.125 455.875 613.75 312.75 531.125 231.688C448.062 150.188 299.625 145.937 217.812 251.187Z" fill="#FCC11A"/>
<path id="Vector_2" d="M315.25 224.437C291.25 213.812 265 242.75 253.562 262.5C242.125 282.312 231.5 321.125 255.875 331.062C280.25 340.937 297.75 324.187 315.312 295.25C332.75 266.312 342.687 236.625 315.25 224.437Z" fill="#FEE269"/>
<g id="rays">
<path id="Vector_3" d="M377.75 115.688C371.938 126.563 373.875 134.938 385.438 137.688C397 140.438 468.937 152.125 475 152.5C483.812 153.063 487.062 146.438 486 138.75C484.875 131.063 467.313 23.375 465.688 13.5C464.063 3.625 453.625 -6.25 443.688 6.9375C433.75 20.125 382.125 107.5 377.75 115.688Z" fill="#FFA722"/>
<path id="Vector_4" d="M564 190.437C552.688 193.937 553 200.875 559.063 209.688C565.125 218.5 606.875 282.187 610.687 286.625C614.562 291 621.125 292.125 626.625 285.5C632.125 278.937 700.75 182.688 705.75 176.688C714 166.813 709.062 156.375 696.437 159.625C686.812 162.187 571.125 188.25 564 190.437Z" fill="#FFA722"/>
<path id="Vector_5" d="M650.25 375.625C642.125 371 631.563 372.312 628.813 382.75C626.063 393.187 614 469 612.875 475.625C611.75 482.25 616.75 488.812 624.938 487.187C633.125 485.562 746.5 468.75 754.063 466.875C767.25 463.562 771.625 450.375 757.938 440.5C749.063 434.062 657.938 380 650.25 375.625Z" fill="#FFA722"/>
<path id="Vector_6" d="M559.562 555.25C568.312 550.563 576.063 554.125 578.25 564.063C580.438 573.938 604.625 675.063 608.5 693.75C610.437 703.125 599.687 710.813 590.937 705.313C582.125 699.813 486.625 633.25 480.5 627.813C471.687 620.125 477.812 612.125 482.125 608.063C490.875 599.75 551.312 559.688 559.562 555.25Z" fill="#FFA722"/>
<path id="Vector_7" d="M293.625 610.75C282.562 609.687 279.312 619.562 281 628.312C282.625 637.125 299.125 748.562 300.25 756.875C301.875 768.937 314.562 773.938 322.75 761.812C330.937 749.687 387.437 659.312 392 650.812C400.25 635.437 394.187 632.125 385.937 628.312C377.75 624.5 305.187 611.875 293.625 610.75Z" fill="#FFA722"/>
<path id="Vector_8" d="M135.437 482.75C143.125 470.125 153 473.438 160.187 485.5C165.062 493.75 206.312 549.25 210.187 555.25C214.062 561.312 215.687 572.812 203.625 575.562C191.437 578.375 93.125 604.188 77.75 606.938C62.375 609.688 53.5625 597.625 63.4375 584.437C69.1875 576.687 131.062 489.938 135.437 482.75Z" fill="#FFA722"/>
<path id="Vector_9" d="M114.563 387.125C128.625 393.375 135.25 391.125 138.188 381.062C142.063 367.875 153.563 307.437 154.125 293.687C154.5 284.75 150.813 276.125 137.063 278.313C123.313 280.5 24.4375 294.312 11.8125 298.687C-2.875 303.812 -1.8125 319.938 7.9375 325.063C19.5 331.125 104.625 382.75 114.563 387.125Z" fill="#FFA722"/>
<path id="Vector_10" d="M285.437 156.375C293.375 150.063 290.937 141 283.812 136.063C276.687 131.125 188.437 67.3125 177.25 58.5625C167.375 50.875 155.25 53.625 158.562 71.1875C160.937 83.8125 189.062 194.313 191 201.938C193.187 210.75 199.812 215.125 207.5 209.625C215.062 204.187 277.187 163 285.437 156.375Z" fill="#FFA722"/>
</g>
</g>
</svg>
